STARTFONT 2.1
COMMENT
COMMENT downloaded from http://webcvs.freedesktop.org/xorg/font/cursor-misc/cursor.bdf?revision=1.1
COMMENT slighly edited by tml to correct a few gdk cursors on win32
COMMENT
COMMENT Created by bitmaptobdf
FONT cursor
SIZE 31 78 78
FONTBOUNDINGBOX 31 31 -15 -16
STARTPROPERTIES 3
COPYRIGHT "These ""glyphs"" are unencumbered"
FONT_ASCENT 16
FONT_DESCENT 17
ENDPROPERTIES
CHARS 154
STARTCHAR X_cursor
ENCODING -1 0
SWIDTH 548 0
DWIDTH 17 0
BBX 14 14 -6 -8
BITMAP
e01d
f03c
f87c
7cf8
3ff0
1fe0
0fc0
0fc0
1fe0
3ff0
7cf8
f87c
f03c
e01c
ENDCHAR
STARTCHAR X_cursor_mask
ENCODING -1 1
SWIDTH 548 0
DWIDTH 17 0
BBX 16 16 -7 -9
BITMAP
f00f
f81f
fc3f
fe7f
7ffe
3ffc
1ff8
0ff0
0ff0
1ff8
3ffc
7ffe
fe7f
fc3f
f81f
f00f
ENDCHAR
STARTCHAR arrow
ENCODING -1 2
SWIDTH 548 0
DWIDTH 17 0
BBX 14 14 -13 -14
BITMAP
000d
003c
00f8
03f8
0ff0
3ff0
03e0
07e0
0ec0
1cc0
3880
7080
e000
4000
ENDCHAR
STARTCHAR arrow_mask
ENCODING -1 3
SWIDTH 548 0
DWIDTH 17 0
BBX 16 16 -14 -15
BITMAP
0007
001f
007f
01fe
07fe
1ffc
3ffc
3ff8
07f8
0ff0
1ff0
3ee0
7ce0
f840
7000
2000
ENDCHAR
STARTCHAR based_arrow_down
ENCODING -1 4
SWIDTH 548 0
DWIDTH 17 0
BBX 8 10 -3 -1
BITMAP
ff
00
ff
18
18
18
18
5a
3c
18
ENDCHAR
STARTCHAR based_arrow_down_mask
ENCODING -1 5
SWIDTH 548 0
DWIDTH 17 0
BBX 10 12 -4 -2
BITMAP
ffc4
ffc0
ffc0
ffc0
ffc0
1e00
1e00
7f80
7f80
7f80
3f00
1e00
ENDCHAR
STARTCHAR based_arrow_up
ENCODING -1 6
SWIDTH 548 0
DWIDTH 17 0
BBX 8 10 -3 -1
BITMAP
18
3c
5a
18
18
18
18
ff
00
ff
ENDCHAR
STARTCHAR based_arrow_up_mask
ENCODING -1 7
SWIDTH 548 0
DWIDTH 17 0
BBX 10 12 -4 -2
BITMAP
0c04
1e00
7f80
7f80
7f80
1e00
1e00
ffc0
ffc0
ffc0
ffc0
ffc0
ENDCHAR
STARTCHAR boat
ENCODING -1 8
SWIDTH 548 0
DWIDTH 17 0
BBX 16 8 -14 -5
BITMAP
0100
07c0
8860
ffff
0018
0020
0040
ffc0
ENDCHAR
STARTCHAR boat_mask
ENCODING -1 9
SWIDTH 548 0
DWIDTH 17 0
BBX 16 9 -14 -5
BITMAP
0700
0fc0
9fe0
ffff
ffff
ffff
fff8
ffe0
ffc0
ENDCHAR
STARTCHAR bogosity
ENCODING -1 10
SWIDTH 548 0
DWIDTH 17 0
BBX 13 14 -6 -8
BITMAP
e239
2220
2220
2220
fff8
a228
a228
a228
a228
fff8
2220
2220
2220
e238
ENDCHAR
STARTCHAR bogosity_mask
ENCODING -1 11
SWIDTH 548 0
DWIDTH 17 0
BBX 15 16 -7 -9
BITMAP
fbbe
fbbe
fbbe
3bb8
fffe
fffe
fffe
fbbe
fbbe
fffe
fffe
fffe
3bb8
fbbe
fbbe
fbbe
ENDCHAR
STARTCHAR bottom_left_corner
ENCODING -1 12
SWIDTH 548 0
DWIDTH 17 0
BBX 14 14 0 -1
BITMAP
c001
c000
c410
c420
c440
c480
c500
c600
c7f0
c000
c000
c000
fffc
fffc
ENDCHAR
STARTCHAR bottom_left_corner_mask
ENCODING -1 13
SWIDTH 548 0
DWIDTH 17 0
BBX 16 16 -1 -2
BITMAP
f000
f000
f70c
f71c
f738
f770
f7e0
f7c0
f7fc
f7fc
f7fc
f000
ffff
ffff
ffff
ffff
ENDCHAR
STARTCHAR bottom_right_corner
ENCODING -1 14
SWIDTH 548 0
DWIDTH 17 0
BBX 14 14 -13 -1
BITMAP
000d
000c
208c
108c
088c
048c
028c
018c
3f8c
000c
000c
000c
fffc
fffc
ENDCHAR
STARTCHAR bottom_right_corner_mask
ENCODING -1 15
SWIDTH 548 0
DWIDTH 17 0
BBX 16 16 -14 -2
BITMAP
000f
000f
30ef
38ef
1cef
0eef
07ef
03ef
3fef
3fef
3fef
000f
ffff
ffff
ffff
ffff
ENDCHAR
STARTCHAR bottom_side
ENCODING -1 16
SWIDTH 548 0
DWIDTH 17 0
BBX 13 14 -6 -1
BITMAP
0201
0200
0200
0200
0200
0200
2220
1240
0a80
0700
0200
0000
fff8
fff8
ENDCHAR
STARTCHAR bottom_side_mask
ENCODING -1 17
SWIDTH 548 0
DWIDTH 17 0
BBX 15 16 -7 -2
BITMAP
0380
0380
0380
0380
0380
0380
3398
3bb8
1ff0
0fe0
07c0
0380
fffe
fffe
fffe
fffe
ENDCHAR
STARTCHAR bottom_tee
ENCODING -1 18
SWIDTH 548 0
DWIDTH 17 0
BBX 14 10 -7 -1
BITMAP
0301
0300
0300
0300
0300
0300
0300
0300
fffc
fffc
ENDCHAR
STARTCHAR bottom_tee_mask
ENCODING -1 19
SWIDTH 548 0
DWIDTH 17 0
BBX 16 12 -8 -2
BITMAP
03c0
03c0
03c0
03c0
03c0
03c0
03c0
03c0
ffff
ffff
ffff
ffff
ENDCHAR
STARTCHAR box_spiral
ENCODING -1 20
SWIDTH 548 0
DWIDTH 17 0
BBX 15 16 -8 -8
BITMAP
ffff
8000
bffe
a002
affa
a80a
abea
aa2a
aaaa
abaa
a82a
afea
a00a
bffa
8002
fffe
ENDCHAR
STARTCHAR box_spiral_mask
ENCODING -1 21
SWIDTH 548 0
DWIDTH 17 0
BBX 16 16 -8 -8
BITMAP
ffff
ffff
ffff
ffff
ffff
ffff
ffff
ffff
ffff
ffff
ffff
ffff
ffff
ffff
ffff
ffff
ENDCHAR
STARTCHAR center_ptr
ENCODING -1 22
SWIDTH 548 0
DWIDTH 17 0
BBX 10 14 -4 -14
BITMAP
0c09
0c00
1e00
1e00
3f00
3f00
7f80
7f80
ccc0
8c40
0c00
0c00
0c00
0c00
ENDCHAR
STARTCHAR center_ptr_mask
ENCODING -1 23
SWIDTH 548 0
DWIDTH 17 0
BBX 12 16 -5 -15
BITMAP
0f04
0f00
1f80
1f80
3fc0
3fc0
7fe0
7fe0
fff0
fff0
fff0
ef70
0f00
0f00
0f00
0f00
ENDCHAR
STARTCHAR circle
ENCODING -1 24
SWIDTH 548 0
DWIDTH 17 0
BBX 14 14 -7 -7
BITMAP
0781
1fe0
3ff0
7878
7038
e01c
e01c
e01c
e01c
7038
7878
3ff0
1fe0
0780
ENDCHAR
STARTCHAR circle_mask
ENCODING -1 25
SWIDTH 548 0
DWIDTH 17 0
BBX 16 16 -8 -8
BITMAP
07e0
1ff8
3ffc
7ffe
7ffe
fc3f
f81f
f81f
f81f
f81f
fc3f
7ffe
7ffe
3ffc
1ff8
07e0
ENDCHAR
STARTCHAR clock
ENCODING -1 26
SWIDTH 548 0
DWIDTH 17 0
BBX 14 16 -6 -13
BITMAP
3ff1
6798
c8cc
9324
9e24
8844
c78c
7ff8
5328
5328
5328
57a8
d32c
f03c
fffc
fffc
ENDCHAR
STARTCHAR clock_mask
ENCODING -1 27
SWIDTH 548 0
DWIDTH 17 0
BBX 15 16 -6 -13
BITMAP
7ff8
ef9c
dbee
b7b6
bff6
9f66
cfce
fffc
d7ac
d7ac
d7ac
dfec
d7ae
f33e
fffe
fffe
ENDCHAR
STARTCHAR coffee_mug
ENCODING -1 28
SWIDTH 548 0
DWIDTH 17 0
BBX 15 16 -7 -7
BITMAP
1ff1
2008
6006
501a
4fe2
c002
c002
4002
4002
591a
6aaa
ebaa
da9a
4002
4002
3ffc
ENDCHAR
STARTCHAR coffee_mug_mask
ENCODING -1 29
SWIDTH 548 0
DWIDTH 17 0
BBX 16 16 -7 -7
BITMAP
1ff0
3ff8
7fff
7fff
ffff
ffff
ffff
ffff
7fff
7fff
ffff
ffff
ffff
ffff
7fff
3ffc
ENDCHAR
STARTCHAR cross
ENCODING -1 30
SWIDTH 548 0
DWIDTH 17 0
BBX 16 15 -7 -8
BITMAP
0280
0280
0280
0280
0280
0280
feff
0000
feff
0280
0280
0280
0280
0280
0280
ENDCHAR
STARTCHAR cross_mask
ENCODING -1 31
SWIDTH 548 0
DWIDTH 17 0
BBX 16 15 -7 -8
BITMAP
07c0
07c0
07c0
07c0
07c0
ffff
ffff
ffff
ffff
ffff
07c0
07c0
07c0
07c0
07c0
ENDCHAR
STARTCHAR cross_reverse
ENCODING -1 32
SWIDTH 548 0
DWIDTH 17 0
BBX 16 15 -7 -8
BITMAP
4284
a28a
5294
2aa8
16d0
0aa0
fd7f
0280
fd7f
0aa0
16d0
2aa8
5294
a28a
4284
ENDCHAR
STARTCHAR cross_reverse_mask
ENCODING -1 33
SWIDTH 548 0
DWIDTH 17 0
BBX 16 15 -7 -8
BITMAP
66cc
b6db
def6
6eec
36d8
fabf
fc7f
0100
fc7f
fabf
36d8
6eec
def6
b6db
66cc
ENDCHAR
STARTCHAR crosshair
ENCODING -1 34
SWIDTH 548 0
DWIDTH 17 0
BBX 16 15 -7 -8
BITMAP
0100
0100
0100
0100
0100
0100
0100
feff
0100
0100
0100
0100
0100
0100
0100
ENDCHAR
STARTCHAR crosshair_mask
ENCODING -1 35
SWIDTH 548 0
DWIDTH 17 0
BBX 16 15 -7 -8
BITMAP
0380
0380
0380
0380
0380
0380
ffff
ffff
ffff
0380
0380
0380
0380
0380
0380
ENDCHAR
STARTCHAR diamond_cross
ENCODING -1 36
SWIDTH 548 0
DWIDTH 17 0
BBX 15 15 -7 -8
BITMAP
0281
06c0
0aa0
1290
2288
4284
fefe
0000
fefe
4284
2288
1290
0aa0
06c0
0280
ENDCHAR
STARTCHAR diamond_cross_mask
ENCODING -1 37
SWIDTH 548 0
DWIDTH 17 0
BBX 15 15 -7 -8
BITMAP
07c0
0fe0
1ff0
3bb8
739c
e38e
ffff
feff
ffff
e38e
739c
3bb8
1ff0
0fe0
07c0
ENDCHAR
STARTCHAR dot
ENCODING -1 38
SWIDTH 548 0
DWIDTH 17 0
BBX 10 10 -5 -5
BITMAP
1e09
7f80
7f80
ffc0
ffc0
ffc0
ffc0
7f80
7f80
1e00
ENDCHAR
STARTCHAR dot_mask
ENCODING -1 39
SWIDTH 548 0
DWIDTH 17 0
BBX 12 12 -6 -6
BITMAP
1f84
7fe0
7fe0
fff0
fff0
fff0
fff0
fff0
fff0
7fe0
7fe0
1f80
ENDCHAR
STARTCHAR dotbox
ENCODING -1 40
SWIDTH 548 0
DWIDTH 17 0
BBX 12 12 -6 -7
BITMAP
fff9
8010
8010
8010
8010
8610
8610
8010
8010
8010
8010
fff0
ENDCHAR
STARTCHAR dotbox_mask
ENCODING -1 41
SWIDTH 548 0
DWIDTH 17 0
BBX 14 14 -7 -8
BITMAP
fffc
fffc
fffc
e01c
e01c
e79c
e79c
e79c
e79c
e01c
e01c
fffc
fffc
fffc
ENDCHAR
STARTCHAR double_arrow
ENCODING -1 42
SWIDTH 548 0
DWIDTH 17 0
BBX 10 14 -5 -7
BITMAP
0c09
1e00
3f00
6d80
ccc0
0c00
0c00
0c00
0c00
ccc0
6d80
3f00
1e00
0c00
ENDCHAR
STARTCHAR double_arrow_mask
ENCODING -1 43
SWIDTH 548 0
DWIDTH 17 0
BBX 12 16 -6 -8
BITMAP
0f04
1f80
3fc0
7fe0
fff0
fff0
fff0
0f00
0f00
fff0
fff0
fff0
7fe0
3fc0
1f80
0f00
ENDCHAR
STARTCHAR draft_large
ENCODING -1 44
SWIDTH 548 0
DWIDTH 17 0
BBX 15 15 -14 -15
BITMAP
0003
000c
003c
00f8
03f8
0ff0
3ff0
01e0
02e0
04c0
08c0
1080
2080
4000
8000
ENDCHAR
STARTCHAR draft_large_mask
ENCODING -1 45
SWIDTH 548 0
DWIDTH 17 0
BBX 15 15 -14 -15
BITMAP
0006
001e
007e
01fc
07f8
1ff8
7ff0
7ff0
07e0
0fe0
1dc0
39c0
7180
e180
c000
ENDCHAR
STARTCHAR draft_small
ENCODING -1 46
SWIDTH 548 0
DWIDTH 17 0
BBX 15 15 -14 -15
BITMAP
0002
000c
003c
00f8
03f8
0070
00b0
0120
0220
0400
0800
1000
2000
4000
8000
ENDCHAR
STARTCHAR draft_small_mask
ENCODING -1 47
SWIDTH 548 0
DWIDTH 17 0
BBX 15 15 -14 -15
BITMAP
0006
001e
007c
01fc
07f8
07f8
01f0
03f0
0760
0e40
1c00
3800
7000
e000
c000
ENDCHAR
STARTCHAR draped_box
ENCODING -1 48
SWIDTH 548 0
DWIDTH 17 0
BBX 12 12 -6 -7
BITMAP
fff8
8910
9990
b0d0
e070
8610
8610
e070
b0d0
9990
8910
fff0
ENDCHAR
STARTCHAR draped_box_mask
ENCODING -1 49
SWIDTH 548 0
DWIDTH 17 0
BBX 14 14 -7 -8
BITMAP
fffc
fffc
cfcc
dfec
fcfc
fb7c
f7bc
f7bc
fb7c
fcfc
dfec
cfcc
fffc
fffc
ENDCHAR
STARTCHAR exchange
ENCODING -1 50
SWIDTH 548 0
DWIDTH 17 0
BBX 14 14 -6 -8
BITMAP
8fc0
dfe0
f830
9010
9800
fc00
0000
0000
00fc
0064
2024
307c
1fec
0fc4
ENDCHAR
STARTCHAR exchange_mask
ENCODING -1 51
SWIDTH 548 0
DWIDTH 17 0
BBX 16 16 -7 -9
BITMAP
c7e0
eff0
fff8
fffc
fc1c
ff0c
ff00
ff00
00ff
00ff
307f
383f
3fff
1fff
0ff7
07e3
ENDCHAR
STARTCHAR fleur
ENCODING -1 52
SWIDTH 548 0
DWIDTH 17 0
BBX 14 14 -7 -7
BITMAP
0300
0780
0fc0
0300
2310
6318
fffc
fffc
6318
2310
0300
0fc0
0780
0300
ENDCHAR
STARTCHAR fleur_mask
ENCODING -1 53
SWIDTH 548 0
DWIDTH 17 0
BBX 16 16 -8 -8
BITMAP
03c0
03e0
07e0
0ff0
17e8
3bdc
ffff
ffff
ffff
ffff
3bdc
17e8
0ff0
07e0
03c0
03c0
ENDCHAR
STARTCHAR gobbler
ENCODING -1 54
SWIDTH 548 0
DWIDTH 17 0
BBX 16 15 -14 -13
BITMAP
0078
0070
8033
9fb0
fff0
fe30
fc30
6038
00f0
1fe0
0800
0800
0800
0800
1e00
ENDCHAR
STARTCHAR gobbler_mask
ENCODING -1 55
SWIDTH 548 0
DWIDTH 17 0
BBX 16 16 -14 -14
BITMAP
00fc
00fc
c0ff
ffff
ffff
fffc
fffc
fffc
fffc
fffc
7ff8
1ff0
1c00
1c00
3f00
3f00
ENDCHAR
STARTCHAR gumby
ENCODING -1 56
SWIDTH 548 0
DWIDTH 17 0
BBX 16 16 -2 -16
BITMAP
3f00
1080
c840
eaa0
c820
cba0
f83c
383f
0827
0827
092f
0927
0920
1110
2108
3ef8
ENDCHAR
STARTCHAR gumby_mask
ENCODING -1 57
SWIDTH 548 0
DWIDTH 17 0
BBX 16 16 -2 -16
BITMAP
3f00
df80
efc0
ffe0
efe0
effc
fffe
ffff
3fef
0fef
0fff
0fef
0fe7
1ff0
3ff8
3ef8
ENDCHAR
STARTCHAR hand1
ENCODING -1 58
SWIDTH 548 0
DWIDTH 17 0
BBX 13 16 -12 -16
BITMAP
0018
0078
01e0
03c0
0780
0fc0
1fe0
5fc0
ffe0
bfe0
0fc0
0f80
9400
c400
6800
3000
ENDCHAR
STARTCHAR hand1_mask
ENCODING -1 59
SWIDTH 548 0
DWIDTH 17 0
BBX 13 16 -12 -16
BITMAP
003b
00f8
03f0
07e0
0fc0
1fe0
7ff0
fff0
fff0
fff0
ffe0
ffc0
ff80
fe00
fc00
7800
ENDCHAR
STARTCHAR hand2
ENCODING -1 60
SWIDTH 548 0
DWIDTH 17 0
BBX 15 14 0 -14
BITMAP
7f80
8040
7e20
1010
0e10
1010
0e28
1044
0c82
0304
0248
0110
00a0
0040
ENDCHAR
STARTCHAR hand2_mask
ENCODING -1 61
SWIDTH 548 0
DWIDTH 17 0
BBX 16 16 0 -15
BITMAP
7f80
ffc0
ffe0
fff0
7ff8
1ff8
3ff8
1ffc
3ffe
1fff
0ffe
07fc
03f8
01f0
00e0
0040
ENDCHAR
STARTCHAR heart
ENCODING -1 62
SWIDTH 548 0
DWIDTH 17 0
BBX 15 14 -6 -6
BITMAP
3ef8
638c
c106
8002
8002
8002
8002
c006
600c
3018
1830
0c60
06c0
0380
ENDCHAR
STARTCHAR heart_mask
ENCODING -1 63
SWIDTH 548 0
DWIDTH 17 0
BBX 15 14 -6 -6
BITMAP
3ef9
7ffc
e38e
c106
c006
c006
c286
e10e
701c
3838
1c70
0fe0
07c0
0380
ENDCHAR
STARTCHAR icon
ENCODING -1 64
SWIDTH 548 0
DWIDTH 17 0
BBX 16 16 -8 -8
BITMAP
ffff
d555
aaab
d555
a00b
d005
a00b
d005
a00b
d005
a00b
d005
aaab
d555
aaab
ffff
ENDCHAR
STARTCHAR icon_mask
ENCODING -1 65
SWIDTH 548 0
DWIDTH 17 0
BBX 16 16 -8 -8
BITMAP
ffff
ffff
ffff
ffff
ffff
ffff
ffff
ffff
ffff
ffff
ffff
ffff
ffff
ffff
ffff
ffff
ENDCHAR
STARTCHAR iron_cross
ENCODING -1 66
SWIDTH 548 0
DWIDTH 17 0
BBX 14 14 -7 -8
BITMAP
7ff8
3ff0
9fe4
cfcc
e79c
f33c
fffc
fffc
f33c
e79c
cfcc
9fe4
3ff0
7ff8
ENDCHAR
STARTCHAR iron_cross_mask
ENCODING -1 67
SWIDTH 548 0
DWIDTH 17 0
BBX 16 16 -8 -9
BITMAP
3ffc
7ffe
7ffe
ffff
ffff
ffff
ffff
ffff
ffff
ffff
ffff
ffff
ffff
7ffe
7ffe
3ffc
ENDCHAR
STARTCHAR left_ptr
ENCODING -1 68
SWIDTH 548 0
DWIDTH 17 0
BBX 8 14 0 -14
BITMAP
80
c0
e0
f0
f8
fc
fe
ff
f8
d8
8c
0c
06
06
ENDCHAR
STARTCHAR left_ptr_mask
ENCODING -1 69
SWIDTH 548 0
DWIDTH 17 0
BBX 10 16 -1 -15
BITMAP
c003
e000
f000
f800
fc00
fe00
ff00
ff80
ffc0
ffc0
fe00
ef00
cf00
0780
0780
0300
ENDCHAR
STARTCHAR left_side
ENCODING -1 70
SWIDTH 548 0
DWIDTH 17 0
BBX 14 13 0 -7
BITMAP
c000
c000
c100
c200
c400
c800
dffc
c800
c400
c200
c100
c000
c000
ENDCHAR
STARTCHAR left_side_mask
ENCODING -1 71
SWIDTH 548 0
DWIDTH 17 0
BBX 16 15 -1 -8
BITMAP
f000
f000
f0c0
f1c0
f380
f700
ffff
ffff
ffff
f700
f380
f1c0
f0c0
f000
f000
ENDCHAR
STARTCHAR left_tee
ENCODING -1 72
SWIDTH 548 0
DWIDTH 17 0
BBX 10 14 0 -7
BITMAP
c008
c000
c000
c000
c000
c000
ffc0
ffc0
c000
c000
c000
c000
c000
c000
ENDCHAR
STARTCHAR left_tee_mask
ENCODING -1 73
SWIDTH 548 0
DWIDTH 17 0
BBX 12 16 -1 -8
BITMAP
f003
f000
f000
f000
f000
f000
fff0
fff0
fff0
fff0
f000
f000
f000
f000
f000
f000
ENDCHAR
STARTCHAR leftbutton
ENCODING -1 74
SWIDTH 548 0
DWIDTH 17 0
BBX 16 16 -8 -8
BITMAP
8003
7ffd
7ffd
4445
4555
4555
4555
4555
4445
7ffd
7ffd
7ffd
7ffd
7ffd
7ffd
8003
ENDCHAR
STARTCHAR leftbutton_mask
ENCODING -1 75
SWIDTH 548 0
DWIDTH 17 0
BBX 15 16 -8 -8
BITMAP
7ffd
fffe
fffe
fffe
fffe
fffe
fffe
fffe
fffe
fffe
fffe
fffe
fffe
fffe
fffe
7ffc
ENDCHAR
STARTCHAR ll_angle
ENCODING -1 76
SWIDTH 548 0
DWIDTH 17 0
BBX 10 10 0 -1
BITMAP
c008
c000
c000
c000
c000
c000
c000
c000
ffc0
ffc0
ENDCHAR
STARTCHAR ll_angle_mask
ENCODING -1 77
SWIDTH 548 0
DWIDTH 17 0
BBX 12 12 -1 -2
BITMAP
f003
f000
f000
f000
f000
f000
f000
f000
fff0
fff0
fff0
fff0
ENDCHAR
STARTCHAR lr_angle
ENCODING -1 78
SWIDTH 548 0
DWIDTH 17 0
BBX 10 10 -9 -1
BITMAP
00c8
00c0
00c0
00c0
00c0
00c0
00c0
00c0
ffc0
ffc0
ENDCHAR
STARTCHAR lr_angle_mask
ENCODING -1 79
SWIDTH 548 0
DWIDTH 17 0
BBX 12 12 -10 -2
BITMAP
00f3
00f0
00f0
00f0
00f0
00f0
00f0
00f0
fff0
fff0
fff0
fff0
ENDCHAR
STARTCHAR man
ENCODING -1 80
SWIDTH 548 0
DWIDTH 17 0
BBX 16 16 -14 -11
BITMAP
0380
1ef0
0280
8100
4387
244b
1d70
0540
0440
0280
0440
0920
1290
1450
783c
f83f
ENDCHAR
STARTCHAR man_mask
ENCODING -1 81
SWIDTH 548 0
DWIDTH 17 0
BBX 16 16 -14 -11
BITMAP
1fe0
3ff0
3ff8
c382
e7c7
7fff
3ffb
1ff0
07e0
07c0
0fe0
1ff0
3ff8
7efc
fc7f
fc7f
ENDCHAR
STARTCHAR middlebutton
ENCODING -1 82
SWIDTH 548 0
DWIDTH 17 0
BBX 16 16 -8 -8
BITMAP
8003
7ffd
7ffd
4445
5455
5455
5455
5455
4445
7ffd
7ffd
7ffd
7ffd
7ffd
7ffd
8003
ENDCHAR
STARTCHAR middlebutton_mask
ENCODING -1 83
SWIDTH 548 0
DWIDTH 17 0
BBX 15 16 -8 -8
BITMAP
7ffd
fffe
fffe
fffe
fffe
fffe
fffe
fffe
fffe
fffe
fffe
fffe
fffe
fffe
fffe
7ffc
ENDCHAR
STARTCHAR mouse
ENCODING -1 84
SWIDTH 548 0
DWIDTH 17 0
BBX 15 14 -4 -13
BITMAP
0700
0c00
0600
0300
7ff8
8004
b336
b336
b336
8006
8006
601c
1860
0780
ENDCHAR
STARTCHAR mouse_mask
ENCODING -1 85
SWIDTH 548 0
DWIDTH 17 0
BBX 16 16 -4 -15
BITMAP
0f80
1e00
0f00
0700
7ff8
fffc
ffff
ffff
ffff
ffff
ffff
ffff
3ff7
1fe0
0fc0
0780
ENDCHAR
STARTCHAR pencil
ENCODING -1 86
SWIDTH 548 0
DWIDTH 17 0
BBX 11 16 -10 -1
BITMAP
7008
8800
8c00
4a00
7a00
2100
1100
1080
0880
0c40
0440
0220
01e0
00e0
0060
0020
ENDCHAR
STARTCHAR pencil_mask
ENCODING -1 87
SWIDTH 548 0
DWIDTH 17 0
BBX 13 16 -11 -1
BITMAP
fc03
fe00
ff00
7f00
3f80
3f80
1fc0
0fc0
0fe0
07e0
07f0
03f8
01f8
00f8
0078
0038
ENDCHAR
STARTCHAR pirate
ENCODING -1 88
SWIDTH 548 0
DWIDTH 17 0
BBX 15 16 -7 -4
BITMAP
0780
0fc0
1fe0
3330
3330
1fe0
0fc0
0780
8784
8786
4308
3870
0780
1fe2
f03e
8004
ENDCHAR
STARTCHAR pirate_mask
ENCODING -1 89
SWIDTH 548 0
DWIDTH 17 0
BBX 16 16 -7 -4
BITMAP
0fc0
1fe0
3ff0
7ff8
7ff8
3ff0
1fe0
8fc1
8fc7
cfcf
f79c
7878
0780
7fe3
ffff
f03e
ENDCHAR
STARTCHAR plus
ENCODING -1 90
SWIDTH 548 0
DWIDTH 17 0
BBX 10 10 -4 -5
BITMAP
0c08
0c00
0c00
0c00
ffc0
ffc0
0c00
0c00
0c00
0c00
ENDCHAR
STARTCHAR plus_mask
ENCODING -1 91
SWIDTH 548 0
DWIDTH 17 0
BBX 12 12 -5 -6
BITMAP
0f03
0f00
0f00
0f00
fff0
fff0
fff0
fff0
0f00
0f00
0f00
0f00
ENDCHAR
STARTCHAR question_arrow
ENCODING -1 92
SWIDTH 548 0
DWIDTH 17 0
BBX 9 15 -4 -8
BITMAP
3e08
7f00
e380
c180
e180
6380
0700
1e00
1c00
1400
1400
7700
3600
1c00
0800
ENDCHAR
STARTCHAR question_arrow_mask
ENCODING -1 93
SWIDTH 548 0
DWIDTH 17 0
BBX 11 16 -5 -8
BITMAP
1f03
3f80
7fc0
ffe0
f1e0
f9e0
7be0
3fc0
1f80
1f00
1f00
3f80
7fc0
3f80
1f00
0e00
ENDCHAR
STARTCHAR right_ptr
ENCODING -1 94
SWIDTH 548 0
DWIDTH 17 0
BBX 8 14 -7 -14
BITMAP
01
03
07
0f
1f
3f
7f
ff
1f
1b
31
30
60
60
ENDCHAR
STARTCHAR right_ptr_mask
ENCODING -1 95
SWIDTH 548 0
DWIDTH 17 0
BBX 10 16 -8 -15
BITMAP
00c3
01c0
03c0
07c0
0fc0
1fc0
3fc0
7fc0
ffc0
ffc0
1fc0
3dc0
3cc0
7800
7800
3000
ENDCHAR
STARTCHAR right_side
ENCODING -1 96
SWIDTH 548 0
DWIDTH 17 0
BBX 14 13 -13 -7
BITMAP
000c
000c
020c
010c
008c
004c
ffec
004c
008c
010c
020c
000c
000c
ENDCHAR
STARTCHAR right_side_mask
ENCODING -1 97
SWIDTH 548 0
DWIDTH 17 0
BBX 16 15 -14 -8
BITMAP
000f
000f
030f
038f
01cf
00ef
ffff
ffff
ffff
00ef
01cf
038f
030f
000f
000f
ENDCHAR
STARTCHAR right_tee
ENCODING -1 98
SWIDTH 548 0
DWIDTH 17 0
BBX 10 14 -9 -7
BITMAP
00c8
00c0
00c0
00c0
00c0
00c0
ffc0
ffc0
00c0
00c0
00c0
00c0
00c0
00c0
ENDCHAR
STARTCHAR right_tee_mask
ENCODING -1 99
SWIDTH 548 0
DWIDTH 17 0
BBX 12 16 -10 -8
BITMAP
00f3
00f0
00f0
00f0
00f0
00f0
fff0
fff0
fff0
fff0
00f0
00f0
00f0
00f0
00f0
00f0
ENDCHAR
STARTCHAR rightbutton
ENCODING -1 100
SWIDTH 548 0
DWIDTH 17 0
BBX 16 16 -8 -8
BITMAP
8003
7ffd
7ffd
4445
5545
5545
5545
5545
4445
7ffd
7ffd
7ffd
7ffd
7ffd
7ffd
8003
ENDCHAR
STARTCHAR rightbutton_mask
ENCODING -1 101
SWIDTH 548 0
DWIDTH 17 0
BBX 15 16 -8 -8
BITMAP
7ffd
fffe
fffe
fffe
fffe
fffe
fffe
fffe
fffe
fffe
fffe
fffe
fffe
fffe
fffe
7ffc
ENDCHAR
STARTCHAR rtl_logo
ENCODING -1 102
SWIDTH 548 0
DWIDTH 17 0
BBX 14 14 -6 -8
BITMAP
fffc
8044
8044
8044
ffc4
8844
8844
8844
8844
8ffc
8804
8804
8804
fffc
ENDCHAR
STARTCHAR rtl_logo_mask
ENCODING -1 103
SWIDTH 548 0
DWIDTH 17 0
BBX 16 16 -7 -9
BITMAP
ffff
ffff
ffff
e077
fff7
fff7
fff7
ee77
ee77
efff
efff
efff
ee07
ffff
ffff
ffff
ENDCHAR
STARTCHAR sailboat
ENCODING -1 104
SWIDTH 548 0
DWIDTH 17 0
BBX 12 13 -6 -14
BITMAP
0108
0100
0580
0580
0d80
0dc0
1dc0
1dc0
3de0
3de0
7de0
7df0
f8e0
ENDCHAR
STARTCHAR sailboat_mask
ENCODING -1 105
SWIDTH 548 0
DWIDTH 17 0
BBX 16 16 -8 -16
BITMAP
00c0
00e0
01e0
03f0
03f0
07f0
07f8
0ff8
0ff8
1ffc
1ffc
3ffc
3fff
7fff
fff8
7fe0
ENDCHAR
STARTCHAR sb_down_arrow
ENCODING -1 106
SWIDTH 548 0
DWIDTH 17 0
BBX 7 15 -3 0
BITMAP
28
28
28
28
28
28
28
28
28
28
28
fe
7c
38
10
ENDCHAR
STARTCHAR sb_down_arrow_mask
ENCODING -1 107
SWIDTH 548 0
DWIDTH 17 0
BBX 9 16 -4 -1
BITMAP
3e03
3e00
3e00
3e00
3e00
3e00
3e00
3e00
3e00
3e00
ff80
ff80
7f00
3e00
1c00
0800
ENDCHAR
STARTCHAR sb_h_double_arrow
ENCODING -1 108
SWIDTH 548 0
DWIDTH 17 0
BBX 15 7 -7 -4
BITMAP
1010
3018
7ffc
f01e
7ffc
3018
1010
ENDCHAR
STARTCHAR sb_h_double_arrow_mask
ENCODING -1 109
SWIDTH 548 0
DWIDTH 17 0
BBX 15 9 -7 -5
BITMAP
1831
3838
7ffc
fffe
fffe
fffe
7ffc
3838
1830
ENDCHAR
STARTCHAR sb_left_arrow
ENCODING -1 110
SWIDTH 548 0
DWIDTH 17 0
BBX 15 7 1 -4
BITMAP
1000
3000
7ffe
f000
7ffe
3000
1000
ENDCHAR
STARTCHAR sb_left_arrow_mask
ENCODING -1 111
SWIDTH 548 0
DWIDTH 17 0
BBX 16 9 0 -5
BITMAP
0c00
1c00
3fff
7fff
ffff
7fff
3fff
1c00
0c00
ENDCHAR
STARTCHAR sb_right_arrow
ENCODING -1 112
SWIDTH 548 0
DWIDTH 17 0
BBX 15 7 -15 -4
BITMAP
0010
0018
fffc
001e
fffc
0018
0010
ENDCHAR
STARTCHAR sb_right_arrow_mask
ENCODING -1 113
SWIDTH 548 0
DWIDTH 17 0
BBX 16 9 -15 -5
BITMAP
0030
0038
fffc
fffe
ffff
fffe
fffc
0038
0030
ENDCHAR
STARTCHAR sb_up_arrow
ENCODING -1 114
SWIDTH 548 0
DWIDTH 17 0
BBX 7 15 -3 -16
BITMAP
10
39
7c
fe
28
28
28
28
28
28
28
28
28
28
28
ENDCHAR
STARTCHAR sb_up_arrow_mask
ENCODING -1 115
SWIDTH 548 0
DWIDTH 17 0
BBX 9 16 -4 -16
BITMAP
0803
1c00
3e00
7f00
ff80
ff80
3e00
3e00
3e00
3e00
3e00
3e00
3e00
3e00
3e00
3e00
ENDCHAR
STARTCHAR sb_v_double_arrow
ENCODING -1 116
SWIDTH 548 0
DWIDTH 17 0
BBX 7 15 -3 -8
BITMAP
10
39
7c
fe
28
28
28
28
28
28
28
fe
7c
38
10
ENDCHAR
STARTCHAR sb_v_double_arrow_mask
ENCODING -1 117
SWIDTH 548 0
DWIDTH 17 0
BBX 9 15 -4 -8
BITMAP
1c03
3e00
7f00
ff80
ff80
3e00
3e00
3e00
3e00
3e00
ff80
ff80
7f00
3e00
1c00
ENDCHAR
STARTCHAR shuttle
ENCODING -1 118
SWIDTH 548 0
DWIDTH 17 0
BBX 15 16 -10 -16
BITMAP
0021
0070
00f8
01de
05de
09de
11de
11de
11de
11de
31de
71de
fdde
1888
0078
0030
ENDCHAR
STARTCHAR shuttle_mask
ENCODING -1 119
SWIDTH 548 0
DWIDTH 17 0
BBX 16 16 -11 -16
BITMAP
0038
007c
00fe
00ff
06ff
0eff
1eff
1eff
1eff
1eff
3eff
7eff
feff
7efe
0c7e
003c
ENDCHAR
STARTCHAR sizing
ENCODING -1 120
SWIDTH 548 0
DWIDTH 17 0
BBX 14 14 -7 -7
BITMAP
ff03
8000
8000
8000
8fc0
8840
8844
8844
0844
0fc4
0024
0014
000c
03fc
ENDCHAR
STARTCHAR sizing_mask
ENCODING -1 121
SWIDTH 548 0
DWIDTH 17 0
BBX 16 16 -8 -8
BITMAP
ffc0
ffc0
ffc0
e000
eff0
eff0
eff7
ee77
ee77
eff7
0ff7
0fff
001f
03ff
03ff
03ff
ENDCHAR
STARTCHAR spider
ENCODING -1 122
SWIDTH 548 0
DWIDTH 17 0
BBX 16 16 -6 -9
BITMAP
2010
1020
1020
0840
0840
8787
6798
1fe0
1fe0
6798
8787
0840
0840
1020
1020
2010
ENDCHAR
STARTCHAR spider_mask
ENCODING -1 123
SWIDTH 548 0
DWIDTH 17 0
BBX 16 16 -6 -9
BITMAP
6018
3030
1020
1860
8fc1
cfcf
6fdc
3ff0
3fe0
6ff8
cfcf
8fc1
1840
1860
3030
6018
ENDCHAR
STARTCHAR spraycan
ENCODING -1 124
SWIDTH 548 0
DWIDTH 17 0
BBX 11 16 -9 -14
BITMAP
0067
0100
3460
7900
6860
fc00
8400
e400
a400
e400
a400
e400
e400
8400
8400
fc00
ENDCHAR
STARTCHAR spraycan_mask
ENCODING -1 125
SWIDTH 548 0
DWIDTH 17 0
BBX 12 16 -10 -14
BITMAP
0032
18b0
3eb0
3eb0
7eb0
ff00
ff00
ff00
ff00
ff00
ff00
ff00
ff00
ff00
ff00
ff00
ENDCHAR
STARTCHAR star
ENCODING -1 126
SWIDTH 548 0
DWIDTH 17 0
BBX 15 16 -7 -9
BITMAP
0101
0280
0280
0280
0440
0440
0440
3938
c006
3838
0920
1290
2448
2828
3018
2008
ENDCHAR
STARTCHAR star_mask
ENCODING -1 127
SWIDTH 548 0
DWIDTH 17 0
BBX 16 16 -7 -9
BITMAP
0100
0380
0380
06c0
06c0
0c60
1c78
f93e
c007
f83e
3938
3398
66cc
6c6c
783c
701c
ENDCHAR
STARTCHAR target
ENCODING -1 128
SWIDTH 548 0
DWIDTH 17 0
BBX 15 13 -7 -7
BITMAP
0381
0fe0
1c70
3018
600c
c106
c286
c106
600c
3018
1c70
0fe0
0380
ENDCHAR
STARTCHAR target_mask
ENCODING -1 129
SWIDTH 548 0
DWIDTH 17 0
BBX 16 15 -7 -8
BITMAP
07c0
0fe0
1ff0
3c78
701c
e10e
c387
c6c7
c387
e10e
701c
3c78
1ff0
0fe0
07c0
ENDCHAR
STARTCHAR tcross
ENCODING -1 130
SWIDTH 516 0
DWIDTH 16 0
BBX 13 13 -6 -7
BITMAP
0207
0200
0200
0200
0200
0200
fff8
0200
0200
0200
0200
0200
0200
ENDCHAR
STARTCHAR tcross_mask
ENCODING -1 131
SWIDTH 516 0
DWIDTH 16 0
BBX 15 15 -7 -8
BITMAP
0380
0380
0380
0380
0380
0380
fffe
fffe
fffe
0380
0380
0380
0380
0380
0380
ENDCHAR
STARTCHAR top_left_arrow
ENCODING -1 132
SWIDTH 548 0
DWIDTH 17 0
BBX 14 14 0 -14
BITMAP
c003
f000
7c00
7f00
3fc0
3ff0
1f00
1f00
0c80
0c40
0420
0410
0008
0004
ENDCHAR
STARTCHAR top_left_arrow_mask
ENCODING -1 133
SWIDTH 548 0
DWIDTH 17 0
BBX 16 16 -1 -15
BITMAP
e000
f800
fe00
7f80
7fe0
3ffc
3ffc
1ffc
1fc0
0fe0
0f70
0738
071c
070e
0007
0003
ENDCHAR
STARTCHAR top_left_corner
ENCODING -1 134
SWIDTH 548 0
DWIDTH 17 0
BBX 14 14 0 -14
BITMAP
ffff
fffc
c000
c000
c000
c7f0
c600
c500
c480
c440
c420
c410
c000
c000
ENDCHAR
STARTCHAR top_left_corner_mask
ENCODING -1 135
SWIDTH 548 0
DWIDTH 17 0
BBX 16 16 -1 -15
BITMAP
ffff
ffff
ffff
ffff
f000
f7fc
f7fc
f7fc
f7c0
f7e0
f770
f738
f71c
f70c
f000
f000
ENDCHAR
STARTCHAR top_right_corner
ENCODING -1 136
SWIDTH 548 0
DWIDTH 17 0
BBX 14 14 -13 -14
BITMAP
ffff
fffc
000c
000c
000c
3f8c
018c
028c
048c
088c
108c
208c
000c
000c
ENDCHAR
STARTCHAR top_right_corner_mask
ENCODING -1 137
SWIDTH 548 0
DWIDTH 17 0
BBX 16 16 -14 -15
BITMAP
ffff
ffff
ffff
ffff
000f
3fef
3fef
3fef
03ef
07ef
0eef
1cef
38ef
30ef
000f
000f
ENDCHAR
STARTCHAR top_side
ENCODING -1 138
SWIDTH 548 0
DWIDTH 17 0
BBX 13 14 -6 -14
BITMAP
ffff
fff8
0000
0200
0700
0a80
1240
2220
0200
0200
0200
0200
0200
0200
ENDCHAR
STARTCHAR top_side_mask
ENCODING -1 139
SWIDTH 548 0
DWIDTH 17 0
BBX 15 16 -7 -15
BITMAP
fffe
fffe
fffe
fffe
0380
07c0
0fe0
1ff0
3bb8
3398
0380
0380
0380
0380
0380
0380
ENDCHAR
STARTCHAR top_tee
ENCODING -1 140
SWIDTH 548 0
DWIDTH 17 0
BBX 14 10 -7 -10
BITMAP
ffff
fffc
0300
0300
0300
0300
0300
0300
0300
0300
ENDCHAR
STARTCHAR top_tee_mask
ENCODING -1 141
SWIDTH 548 0
DWIDTH 17 0
BBX 16 12 -8 -11
BITMAP
ffff
ffff
ffff
ffff
03c0
03c0
03c0
03c0
03c0
03c0
03c0
03c0
ENDCHAR
STARTCHAR trek
ENCODING -1 142
SWIDTH 548 0
DWIDTH 17 0
BBX 7 16 -3 -16
BITMAP
11
01
38
7c
fe
ee
fe
7c
38
10
ba
d6
92
82
82
82
ENDCHAR
STARTCHAR trek_mask
ENCODING -1 143
SWIDTH 548 0
DWIDTH 17 0
BBX 9 16 -4 -16
BITMAP
1c02
1c00
3e00
7f00
ff80
ff80
ff80
7f00
3e00
5d00
ff80
ff80
ff80
eb80
eb80
e380
ENDCHAR
STARTCHAR ul_angle
ENCODING -1 144
SWIDTH 548 0
DWIDTH 17 0
BBX 10 10 0 -10
BITMAP
ffc7
ffc0
c000
c000
c000
c000
c000
c000
c000
c000
ENDCHAR
STARTCHAR ul_angle_mask
ENCODING -1 145
SWIDTH 548 0
DWIDTH 17 0
BBX 12 12 -1 -11
BITMAP
fff2
fff0
fff0
fff0
f000
f000
f000
f000
f000
f000
f000
f000
ENDCHAR
STARTCHAR umbrella
ENCODING -1 146
SWIDTH 548 0
DWIDTH 17 0
BBX 14 14 -7 -12
BITMAP
1123
0450
934c
4f90
3260
c218
0200
0200
0200
0200
0200
0280
0280
0100
ENDCHAR
STARTCHAR umbrella_mask
ENCODING -1 147
SWIDTH 548 0
DWIDTH 17 0
BBX 16 16 -8 -14
BITMAP
176e
dffb
bffc
7fff
fffc
ffff
f39e
0380
0380
0380
0380
03e0
03e0
03e0
03e0
01c0
ENDCHAR
STARTCHAR ur_angle
ENCODING -1 148
SWIDTH 548 0
DWIDTH 17 0
BBX 10 10 -9 -10
BITMAP
ffc7
ffc0
00c0
00c0
00c0
00c0
00c0
00c0
00c0
00c0
ENDCHAR
STARTCHAR ur_angle_mask
ENCODING -1 149
SWIDTH 548 0
DWIDTH 17 0
BBX 12 12 -10 -11
BITMAP
fff2
fff0
fff0
fff0
00f0
00f0
00f0
00f0
00f0
00f0
00f0
00f0
ENDCHAR
STARTCHAR watch
ENCODING -1 150
SWIDTH 548 0
DWIDTH 17 0
BBX 16 16 -15 -7
BITMAP
1fe0
1fe0
1fe0
3ff0
6118
c10c
8107
8387
8387
8407
c80c
6018
3ff0
1fe0
1fe0
1fe0
ENDCHAR
STARTCHAR watch_mask
ENCODING -1 151
SWIDTH 548 0
DWIDTH 17 0
BBX 16 16 -15 -7
BITMAP
3ff0
3ff0
3ff0
7ff8
fffc
ffff
ffff
ffff
ffff
ffff
ffff
fffc
7ff8
3ff0
3ff0
3ff0
ENDCHAR
STARTCHAR xterm
ENCODING -1 152
SWIDTH 322 0
DWIDTH 10 0
BBX 7 14 -3 -7
BITMAP
ef
39
10
10
10
10
10
10
10
10
10
10
38
ee
ENDCHAR
STARTCHAR xterm_mask
ENCODING -1 153
SWIDTH 322 0
DWIDTH 10 0
BBX 9 16 -4 -8
BITMAP
f782
ff80
ff80
3e00
1c00
1c00
1c00
1c00
1c00
1c00
1c00
1c00
3e00
ff80
ff80
f780
ENDCHAR
ENDFONT
